<svg id="Capa_1" data-name="Capa 1" xmlns="http://www.w3.org/2000/svg" xmlns:xlink="http://www.w3.org/1999/xlink" viewBox="0 0 324.14 342.82"><defs><style>.cls-1,.cls-3{fill:none;stroke:#fff;stroke-miterlimit:10;}.cls-1{stroke-width:1.2px;}.cls-2{fill:url(#Degradado_sin_nombre_86);}.cls-3{stroke-width:0.71px;}.cls-4{fill:#fff;}.cls-5{fill:#fc6;}.cls-6{fill:#f7981d;}</style><linearGradient id="Degradado_sin_nombre_86" x1="187.36" y1="117.7" x2="435.76" y2="117.7" gradientUnits="userSpaceOnUse"><stop offset="0" stop-color="#059899"/><stop offset="0.97" stop-color="#066"/><stop offset="1" stop-color="#0b6a37"/><stop offset="1" stop-color="#1c3664"/></linearGradient></defs><title>Background2</title><path class="cls-1" d="M-34.14,192.31" transform="translate(-111.62)"/><path class="cls-2" d="M220.5,0c-20.69,22.11-33.14,32.49-33.14,81.5S266.25,299.82,331.2,209.13s78-15.21,104.16-39.61L435.76,0Z" transform="translate(-111.62)"/><path class="cls-3" d="M116.94,219.34" transform="translate(-111.62)"/><path class="cls-4" d="M435.76,193.82c-21.57-4.11-42.81-43.52-102.34,39.61C259.42,336.76,169.54,143.85,169.54,88c0-52.14,12.36-65.91,33.2-88h18C200,22.11,187.56,32.49,187.56,81.5S266.45,299.82,331.4,209.13s78-15.21,104.16-39.61Z" transform="translate(-111.62)"/><path class="cls-5" d="M435.76,209.45c-20.88-10.09-48-16.46-99.73,54.76C249,384,143.38,160.36,143.38,95.62c0-55.27,12.15-73.34,33-95.62h26.41c-20.84,22.1-33.2,35.87-33.2,88,0,55.84,89.88,248.75,163.88,145.42,59.53-83.13,80.77-43.72,102.34-39.61Z" transform="translate(-111.62)"/><path class="cls-6" d="M435.76,228.14c-21.88-.32-50.54,14.56-93,73.05C238.39,444.91,111.62,176.59,111.62,98.92c0-53.07,9.33-77.56,25.86-98.92h38.85c-20.8,22.28-33,40.35-33,95.62C143.38,160.36,249,384,336,264.21c51.72-71.22,78.85-64.85,99.73-54.76Z" transform="translate(-111.62)"/></svg>