<svg id="Capa_1" data-name="Capa 1" xmlns="http://www.w3.org/2000/svg" xmlns:xlink="http://www.w3.org/1999/xlink" viewBox="0 0 340.97 329.75"><defs><style>.cls-1,.cls-3{fill:none;stroke:#fff;stroke-miterlimit:10;}.cls-1{stroke-width:1.2px;}.cls-2{fill:url(#Degradado_sin_nombre_86);}.cls-3{stroke-width:0.71px;}.cls-4{fill:#fff;}.cls-5{fill:#fc6;}.cls-6{fill:#f7981d;}</style><linearGradient id="Degradado_sin_nombre_86" x1="195.59" y1="114" x2="434.52" y2="114" gradientUnits="userSpaceOnUse"><stop offset="0" stop-color="#059899"/><stop offset="0.97" stop-color="#066"/><stop offset="1" stop-color="#0b6a37"/><stop offset="1" stop-color="#1c3664"/></linearGradient></defs><title>Background</title><path class="cls-1" d="M-34.14,192.31" transform="translate(-93.55)"/><path class="cls-2" d="M227.47.65A138.36,138.36,0,0,0,434.14,184.41L434.52.65Z" transform="translate(-93.55)"/><path class="cls-3" d="M187.42,132.21" transform="translate(-93.55)"/><path class="cls-4" d="M434.07,219.41A161.57,161.57,0,0,1,199.72.3l27.94.35A138.36,138.36,0,0,0,434.33,184.41Z" transform="translate(-93.55)"/><path class="cls-5" d="M433.83,261.74a191.08,191.08,0,0,1-120.21,34.38C207.47,290.44,126,199.39,131.75,92.76A193.08,193.08,0,0,1,160.91.3l38.82,0A161.57,161.57,0,0,0,434,219.32Z" transform="translate(-93.55)"/><path class="cls-6" d="M433.91,261.73A191.12,191.12,0,0,1,313.7,296.1c-106.15-5.68-187.58-96.72-181.87-203.36A193.12,193.12,0,0,1,161,.28L125.29,0A208.26,208.26,0,0,0,94.48,91.07C83.23,210.51,175.56,316.9,300.7,328.68a234,234,0,0,0,133.63-26.84Z" transform="translate(-93.55)"/></svg>